<mxfile host="65bd71144e">
    <diagram id="6mqun36thdIHxSsxsF62" name="Page-1">
        <mxGraphModel dx="2930" dy="1188" grid="1" gridSize="10" guides="1" tooltips="1" connect="1" arrows="1" fold="1" page="1" pageScale="1" pageWidth="850" pageHeight="1100" background="#FFFFFF" math="0" shadow="0">
            <root>
                <mxCell id="0"/>
                <mxCell id="1" parent="0"/>
                <mxCell id="3" value="Admin" style="rounded=0;whiteSpace=wrap;html=1;" vertex="1" parent="1">
                    <mxGeometry x="230" y="40" width="120" height="60" as="geometry"/>
                </mxCell>
                <mxCell id="16" style="edgeStyle=none;html=1;exitX=0;exitY=0.5;exitDx=0;exitDy=0;entryX=1;entryY=0.5;entryDx=0;entryDy=0;entryPerimeter=0;strokeColor=#000000;strokeWidth=3;" edge="1" parent="1" source="4" target="15">
                    <mxGeometry relative="1" as="geometry"/>
                </mxCell>
                <mxCell id="24" style="edgeStyle=none;html=1;exitX=0;exitY=1;exitDx=0;exitDy=0;strokeColor=#000000;strokeWidth=3;" edge="1" parent="1" source="4" target="18">
                    <mxGeometry relative="1" as="geometry"/>
                </mxCell>
                <mxCell id="25" style="edgeStyle=none;html=1;exitX=0.5;exitY=1;exitDx=0;exitDy=0;strokeColor=#000000;strokeWidth=3;" edge="1" parent="1" source="4" target="19">
                    <mxGeometry relative="1" as="geometry"/>
                </mxCell>
                <mxCell id="26" style="edgeStyle=none;html=1;exitX=1;exitY=1;exitDx=0;exitDy=0;entryX=0.5;entryY=0;entryDx=0;entryDy=0;entryPerimeter=0;strokeColor=#000000;strokeWidth=3;" edge="1" parent="1" source="4" target="20">
                    <mxGeometry relative="1" as="geometry"/>
                </mxCell>
                <mxCell id="27" style="edgeStyle=none;html=1;exitX=1;exitY=0.5;exitDx=0;exitDy=0;entryX=0.5;entryY=0;entryDx=0;entryDy=0;entryPerimeter=0;strokeColor=#000000;strokeWidth=3;" edge="1" parent="1" source="4" target="21">
                    <mxGeometry relative="1" as="geometry"/>
                </mxCell>
                <mxCell id="58" style="edgeStyle=none;html=1;exitX=1;exitY=0.5;exitDx=0;exitDy=0;entryX=0.145;entryY=0;entryDx=0;entryDy=4.35;entryPerimeter=0;strokeColor=#000000;strokeWidth=3;fontColor=#FFF0FC;" edge="1" parent="1" source="4" target="51">
                    <mxGeometry relative="1" as="geometry"/>
                </mxCell>
                <mxCell id="60" style="edgeStyle=none;html=1;exitX=1;exitY=0;exitDx=0;exitDy=0;entryX=0.145;entryY=0;entryDx=0;entryDy=4.35;entryPerimeter=0;strokeColor=#000000;strokeWidth=3;fontColor=#FFF0FC;" edge="1" parent="1" source="4" target="56">
                    <mxGeometry relative="1" as="geometry"/>
                </mxCell>
                <mxCell id="4" value="School" style="ellipse;whiteSpace=wrap;html=1;" vertex="1" parent="1">
                    <mxGeometry x="230" y="150" width="120" height="80" as="geometry"/>
                </mxCell>
                <mxCell id="5" value="" style="endArrow=none;dashed=1;html=1;entryX=0.5;entryY=1;entryDx=0;entryDy=0;exitX=0.5;exitY=0;exitDx=0;exitDy=0;strokeColor=#000000;strokeWidth=3;" edge="1" parent="1" source="4" target="3">
                    <mxGeometry width="50" height="50" relative="1" as="geometry">
                        <mxPoint x="270" y="350" as="sourcePoint"/>
                        <mxPoint x="320" y="300" as="targetPoint"/>
                    </mxGeometry>
                </mxCell>
                <mxCell id="7" value="" style="shape=process;whiteSpace=wrap;html=1;backgroundOutline=1;" vertex="1" parent="1">
                    <mxGeometry x="-340" y="450" width="320" height="110" as="geometry"/>
                </mxCell>
                <mxCell id="8" value="Actor" style="shape=umlActor;verticalLabelPosition=bottom;verticalAlign=top;html=1;outlineConnect=0;" vertex="1" parent="1">
                    <mxGeometry x="-280" y="460" width="30" height="60" as="geometry"/>
                </mxCell>
                <mxCell id="9" value="Actor" style="shape=umlActor;verticalLabelPosition=bottom;verticalAlign=top;html=1;outlineConnect=0;" vertex="1" parent="1">
                    <mxGeometry x="-220" y="460" width="30" height="60" as="geometry"/>
                </mxCell>
                <mxCell id="10" value="Actor" style="shape=umlActor;verticalLabelPosition=bottom;verticalAlign=top;html=1;outlineConnect=0;" vertex="1" parent="1">
                    <mxGeometry x="-160" y="460" width="30" height="60" as="geometry"/>
                </mxCell>
                <mxCell id="11" value="Actor" style="shape=umlActor;verticalLabelPosition=bottom;verticalAlign=top;html=1;outlineConnect=0;" vertex="1" parent="1">
                    <mxGeometry x="-90" y="460" width="30" height="60" as="geometry"/>
                </mxCell>
                <mxCell id="13" value="School Admin Users" style="text;html=1;strokeColor=none;fillColor=default;align=center;verticalAlign=middle;whiteSpace=wrap;rounded=0;" vertex="1" parent="1">
                    <mxGeometry x="-250" y="560" width="160" height="20" as="geometry"/>
                </mxCell>
                <mxCell id="17" style="edgeStyle=none;html=1;exitX=1;exitY=0;exitDx=0;exitDy=52.5;exitPerimeter=0;strokeWidth=4;strokeColor=#000000;" edge="1" parent="1" source="15" target="7">
                    <mxGeometry relative="1" as="geometry"/>
                </mxCell>
                <mxCell id="15" value="RBAC" style="shape=cylinder3;whiteSpace=wrap;html=1;boundedLbl=1;backgroundOutline=1;size=15;" vertex="1" parent="1">
                    <mxGeometry x="40" y="310" width="60" height="80" as="geometry"/>
                </mxCell>
                <mxCell id="29" style="edgeStyle=none;html=1;exitX=0.5;exitY=1;exitDx=0;exitDy=0;exitPerimeter=0;entryX=0.5;entryY=0;entryDx=0;entryDy=0;strokeColor=#000000;strokeWidth=3;" edge="1" parent="1" source="18" target="28">
                    <mxGeometry relative="1" as="geometry"/>
                </mxCell>
                <mxCell id="18" value="Circulam" style="shape=cylinder3;whiteSpace=wrap;html=1;boundedLbl=1;backgroundOutline=1;size=15;fillColor=default;" vertex="1" parent="1">
                    <mxGeometry x="165" y="310" width="60" height="80" as="geometry"/>
                </mxCell>
                <mxCell id="31" style="edgeStyle=none;html=1;exitX=0.5;exitY=1;exitDx=0;exitDy=0;exitPerimeter=0;strokeColor=#000000;strokeWidth=3;" edge="1" parent="1" source="19" target="30">
                    <mxGeometry relative="1" as="geometry"/>
                </mxCell>
                <mxCell id="19" value="Events" style="shape=cylinder3;whiteSpace=wrap;html=1;boundedLbl=1;backgroundOutline=1;size=15;fillColor=default;" vertex="1" parent="1">
                    <mxGeometry x="280" y="310" width="60" height="80" as="geometry"/>
                </mxCell>
                <mxCell id="33" style="edgeStyle=none;html=1;exitX=0.5;exitY=1;exitDx=0;exitDy=0;exitPerimeter=0;strokeColor=#000000;strokeWidth=3;" edge="1" parent="1" source="20" target="32">
                    <mxGeometry relative="1" as="geometry"/>
                </mxCell>
                <mxCell id="20" value="Fees" style="shape=cylinder3;whiteSpace=wrap;html=1;boundedLbl=1;backgroundOutline=1;size=15;fillColor=default;" vertex="1" parent="1">
                    <mxGeometry x="390" y="310" width="60" height="80" as="geometry"/>
                </mxCell>
                <mxCell id="35" style="edgeStyle=none;html=1;exitX=0.5;exitY=1;exitDx=0;exitDy=0;exitPerimeter=0;entryX=0.5;entryY=0;entryDx=0;entryDy=0;strokeColor=#000000;strokeWidth=3;" edge="1" parent="1" source="21" target="34">
                    <mxGeometry relative="1" as="geometry"/>
                </mxCell>
                <mxCell id="21" value="Student&lt;br&gt;Portal" style="shape=cylinder3;whiteSpace=wrap;html=1;boundedLbl=1;backgroundOutline=1;size=15;fillColor=default;" vertex="1" parent="1">
                    <mxGeometry x="500" y="310" width="60" height="80" as="geometry"/>
                </mxCell>
                <mxCell id="28" value="Studies&lt;br&gt;exams&lt;br&gt;Level" style="shape=process;whiteSpace=wrap;html=1;backgroundOutline=1;fillColor=default;" vertex="1" parent="1">
                    <mxGeometry x="40" y="480" width="160" height="70" as="geometry"/>
                </mxCell>
                <mxCell id="30" value="Extra events&lt;br&gt;Competions&lt;br&gt;Picnic&lt;br&gt;Art fest" style="shape=process;whiteSpace=wrap;html=1;backgroundOutline=1;fillColor=default;" vertex="1" parent="1">
                    <mxGeometry x="250" y="480" width="130" height="70" as="geometry"/>
                </mxCell>
                <mxCell id="32" value="Student fees&amp;nbsp;&lt;br&gt;Event Fees&lt;br&gt;Circulam fees&lt;br&gt;Fee structure" style="shape=process;whiteSpace=wrap;html=1;backgroundOutline=1;fillColor=default;" vertex="1" parent="1">
                    <mxGeometry x="410" y="480" width="140" height="70" as="geometry"/>
                </mxCell>
                <mxCell id="34" value="Login&lt;br&gt;Fee check&lt;br&gt;Event check&amp;nbsp;&lt;br&gt;Circulam check&lt;br&gt;Exams&lt;br&gt;teachers support&amp;nbsp;&lt;br&gt;Groups chat&lt;br&gt;Chat&lt;br&gt;lectures" style="shape=process;whiteSpace=wrap;html=1;backgroundOutline=1;fillColor=default;" vertex="1" parent="1">
                    <mxGeometry x="600" y="480" width="220" height="140" as="geometry"/>
                </mxCell>
                <mxCell id="36" value="" style="endArrow=none;html=1;strokeColor=#000000;strokeWidth=3;" edge="1" parent="1">
                    <mxGeometry width="50" height="50" relative="1" as="geometry">
                        <mxPoint x="-440" y="800" as="sourcePoint"/>
                        <mxPoint x="852" y="790" as="targetPoint"/>
                    </mxGeometry>
                </mxCell>
                <mxCell id="44" style="edgeStyle=none;html=1;exitX=0.5;exitY=1;exitDx=0;exitDy=0;exitPerimeter=0;entryX=0.5;entryY=0;entryDx=0;entryDy=0;strokeColor=#000000;strokeWidth=3;fontColor=#FCFCFC;" edge="1" parent="1" source="37" target="39">
                    <mxGeometry relative="1" as="geometry"/>
                </mxCell>
                <mxCell id="37" value="Circulam" style="shape=cylinder3;whiteSpace=wrap;html=1;boundedLbl=1;backgroundOutline=1;size=15;fillColor=default;" vertex="1" parent="1">
                    <mxGeometry x="280" y="830" width="60" height="80" as="geometry"/>
                </mxCell>
                <mxCell id="45" style="edgeStyle=none;html=1;exitX=1;exitY=0.5;exitDx=0;exitDy=0;strokeColor=#000000;strokeWidth=3;fontColor=#FCFCFC;" edge="1" parent="1" source="39" target="40">
                    <mxGeometry relative="1" as="geometry"/>
                </mxCell>
                <mxCell id="39" value="&lt;font color=&quot;#fcfcfc&quot;&gt;Levels&amp;nbsp;&lt;br&gt;1&lt;br&gt;2&lt;br&gt;3&lt;br&gt;4&lt;br&gt;&lt;/font&gt;" style="shape=process;whiteSpace=wrap;html=1;backgroundOutline=1;labelBackgroundColor=#000000;strokeColor=#000000;fontColor=#050505;fillColor=#1d112c;" vertex="1" parent="1">
                    <mxGeometry x="240" y="970" width="140" height="100" as="geometry"/>
                </mxCell>
                <mxCell id="40" value="Level Passing&amp;nbsp;&lt;br&gt;Logic" style="shape=card;whiteSpace=wrap;html=1;labelBackgroundColor=none;strokeColor=#000000;fontColor=#FCFCFC;fillColor=#1d112c;" vertex="1" parent="1">
                    <mxGeometry x="450" y="970" width="80" height="100" as="geometry"/>
                </mxCell>
                <mxCell id="48" style="edgeStyle=none;html=1;exitX=0.75;exitY=0.1;exitDx=0;exitDy=0;exitPerimeter=0;strokeColor=#000000;strokeWidth=3;fontColor=#030303;" edge="1" parent="1" source="47" target="39">
                    <mxGeometry relative="1" as="geometry"/>
                </mxCell>
                <mxCell id="47" value="Each student Belogs to a level and &lt;br&gt;as soon as he passes the level&amp;nbsp;&lt;br&gt;he will increamented to next level&amp;nbsp;" style="shape=umlActor;verticalLabelPosition=bottom;verticalAlign=top;html=1;outlineConnect=0;labelBackgroundColor=none;strokeColor=#000000;fontColor=#030303;fillColor=#1d112c;" vertex="1" parent="1">
                    <mxGeometry x="290" y="1170" width="30" height="60" as="geometry"/>
                </mxCell>
                <mxCell id="62" style="edgeStyle=none;html=1;exitX=0.5;exitY=1;exitDx=0;exitDy=0;exitPerimeter=0;entryX=0.5;entryY=0;entryDx=0;entryDy=0;strokeColor=#000000;strokeWidth=3;fontColor=#FFF0FC;" edge="1" parent="1" source="51" target="61">
                    <mxGeometry relative="1" as="geometry"/>
                </mxCell>
                <mxCell id="51" value="Admission process" style="shape=cylinder3;whiteSpace=wrap;html=1;boundedLbl=1;backgroundOutline=1;size=15;labelBackgroundColor=none;strokeColor=#000000;fontColor=#FFF0FC;fillColor=#1d112c;" vertex="1" parent="1">
                    <mxGeometry x="680" y="310" width="60" height="80" as="geometry"/>
                </mxCell>
                <mxCell id="64" style="edgeStyle=none;html=1;exitX=0.5;exitY=1;exitDx=0;exitDy=0;exitPerimeter=0;entryX=0.5;entryY=0;entryDx=0;entryDy=0;strokeColor=#000000;strokeWidth=3;fontColor=#FFF0FC;" edge="1" parent="1" source="56" target="63">
                    <mxGeometry relative="1" as="geometry"/>
                </mxCell>
                <mxCell id="56" value="Leaving Process" style="shape=cylinder3;whiteSpace=wrap;html=1;boundedLbl=1;backgroundOutline=1;size=15;labelBackgroundColor=none;strokeColor=#000000;fontColor=#FFF0FC;fillColor=#1d112c;" vertex="1" parent="1">
                    <mxGeometry x="820" y="310" width="60" height="80" as="geometry"/>
                </mxCell>
                <mxCell id="61" value="Admission Grants&lt;br&gt;Ciculam level&lt;br&gt;Documents&lt;br&gt;Admission form" style="shape=process;whiteSpace=wrap;html=1;backgroundOutline=1;labelBackgroundColor=none;strokeColor=#000000;fontColor=#FFF0FC;fillColor=#1d112c;" vertex="1" parent="1">
                    <mxGeometry x="850" y="500" width="120" height="80" as="geometry"/>
                </mxCell>
                <mxCell id="63" value="Year of Leaving level" style="shape=process;whiteSpace=wrap;html=1;backgroundOutline=1;labelBackgroundColor=none;strokeColor=#000000;fontColor=#FFF0FC;fillColor=#1d112c;" vertex="1" parent="1">
                    <mxGeometry x="1040" y="500" width="120" height="60" as="geometry"/>
                </mxCell>
            </root>
        </mxGraphModel>
    </diagram>
</mxfile>